<?xml version="1.0" standalone="no"?>
<!DOCTYPE svg PUBLIC "-//W3C//DTD SVG 20010904//EN"
 "http://www.w3.org/TR/2001/REC-SVG-20010904/DTD/svg10.dtd">
<svg version="1.0" xmlns="http://www.w3.org/2000/svg"
 width="498.000000pt" height="345.000000pt" viewBox="0 0 498.000000 345.000000"
 preserveAspectRatio="xMidYMid meet">

<g transform="translate(0.000000,345.000000) scale(0.100000,-0.100000)"
fill="#000000" stroke="none">
<path d="M0 1725 l0 -1725 2490 0 2490 0 0 1725 0 1725 -2490 0 -2490 0 0
-1725z m4890 20 l0 -1635 -2410 0 -2410 0 0 1635 0 1635 2410 0 2410 0 0
-1635z"/>
<path d="M150 1745 l0 -1555 2330 0 2330 0 0 1555 0 1555 -2330 0 -2330 0 0
-1555z m3038 863 c-4 -17 -196 -736 -225 -840 -5 -17 -42 -18 -599 -18 -469 0
-594 3 -594 13 1 6 25 102 54 212 l53 200 123 3 c108 2 122 1 116 -13 -3 -9
-13 -44 -21 -78 -9 -34 -18 -70 -21 -80 -5 -16 15 -17 353 -15 l358 3 85 317
85 318 119 0 c117 0 118 0 114 -22z m-1631 -1238 c63 -28 97 -61 123 -122 41
-95 24 -221 -37 -289 -68 -75 -168 -104 -272 -79 -134 32 -212 167 -181 314
34 167 204 248 367 176z m2532 19 c27 -6 68 -24 91 -40 40 -29 83 -86 77 -103
-2 -5 -23 -16 -47 -25 l-45 -17 -20 31 c-54 79 -188 81 -245 2 -28 -37 -38
-118 -20 -171 34 -104 173 -128 252 -45 l38 40 49 -18 c48 -17 49 -18 36 -43
-26 -51 -87 -100 -144 -117 -99 -28 -221 -3 -278 59 -37 41 -67 110 -71 168
-10 132 60 238 180 275 54 17 84 18 147 4z m-3099 -197 c0 -185 -1 -200 -22
-242 -37 -71 -114 -97 -208 -70 -62 18 -65 22 -44 69 13 31 22 40 34 35 8 -4
34 -9 56 -12 69 -7 74 8 74 230 l0 188 55 0 55 0 0 -198z m1218 148 l0 -50
-94 0 -94 0 0 -55 0 -55 80 0 80 0 0 -45 0 -45 -80 0 -80 0 0 -60 0 -60 95 0
95 0 0 -45 0 -45 -150 0 -150 0 0 255 0 255 149 0 150 0 -1 -50z m322 -160 l0
-210 80 0 80 0 0 -45 0 -45 -135 0 -135 0 0 255 0 255 55 0 55 0 0 -210z m615
190 c51 -25 75 -65 75 -125 0 -58 -21 -100 -63 -121 -17 -9 -34 -18 -36 -20
-2 -1 31 -53 73 -113 l76 -111 -65 0 -64 0 -66 110 c-36 61 -73 110 -81 110
-11 0 -14 -21 -14 -110 l0 -110 -55 0 -55 0 0 255 0 255 117 0 c96 0 124 -4
158 -20z m415 -235 l0 -255 -55 0 -55 0 0 255 0 255 55 0 55 0 0 -255z"/>
<path d="M1385 1285 c-22 -8 -41 -15 -42 -15 -1 0 -14 -20 -28 -43 -47 -82
-27 -187 45 -235 46 -31 130 -28 178 8 67 49 81 166 28 235 -15 19 -35 39 -45
45 -34 18 -95 20 -136 5z"/>
<path d="M2980 1240 l0 -60 48 0 c60 0 92 21 92 60 0 39 -32 60 -92 60 l-48 0
0 -60z"/>
</g>
</svg>
